<svg width="32" height="32" viewBox="0 0 32 32" fill="none" xmlns="http://www.w3.org/2000/svg">
<path d="M19.76 5.68007C19.4952 6.15432 19.2592 6.6441 19.0533 7.14674C17.0304 6.8268 14.9697 6.8268 12.9467 7.14674C12.7408 6.6441 12.5048 6.15432 12.24 5.68007C10.3344 6.00567 8.48188 6.58879 6.73335 7.4134C3.6066 11.9258 2.18859 17.404 2.73334 22.8667C4.771 24.3985 7.05796 25.5668 9.49335 26.3201C10.0479 25.5875 10.5428 24.8117 10.9733 24.0001C10.1788 23.7071 9.41507 23.3364 8.69335 22.8934C8.89129 22.7617 9.07854 22.6146 9.25335 22.4534C11.358 23.4672 13.664 23.9936 16 23.9936C18.3361 23.9936 20.6421 23.4672 22.7467 22.4534C22.9333 22.6134 23.12 22.7601 23.3067 22.8934C22.581 23.3329 21.8181 23.7077 21.0267 24.0134C21.4394 24.8435 21.921 25.6374 22.4667 26.3867C24.899 25.6361 27.182 24.4675 29.2133 22.9334C29.7712 17.4697 28.352 11.987 25.2133 7.48007C23.4845 6.63839 21.6502 6.03296 19.76 5.68007ZM11.5733 19.7467C10.9061 19.6988 10.2834 19.3943 9.83591 18.8971C9.38841 18.3999 9.15094 17.7486 9.17335 17.0801C9.14756 16.4106 9.38386 15.7575 9.83203 15.2595C10.2802 14.7616 10.9049 14.458 11.5733 14.4134C12.2418 14.458 12.8665 14.7616 13.3147 15.2595C13.7628 15.7575 13.9991 16.4106 13.9733 17.0801C13.9991 17.7495 13.7628 18.4026 13.3147 18.9006C12.8665 19.3986 12.2418 19.7021 11.5733 19.7467ZM20.4267 19.7467C19.7595 19.6988 19.1367 19.3943 18.6892 18.8971C18.2417 18.3999 18.0043 17.7486 18.0267 17.0801C18.0009 16.4106 18.2372 15.7575 18.6854 15.2595C19.1335 14.7616 19.7582 14.458 20.4267 14.4134C21.0964 14.4547 21.7231 14.7573 22.1719 15.256C22.6208 15.7547 22.8559 16.4097 22.8267 17.0801C22.8559 17.7504 22.6208 18.4054 22.1719 18.9041C21.7231 19.4029 21.0964 19.7054 20.4267 19.7467Z" fill="black"/>
</svg>
