<svg width="40" height="40" viewBox="0 0 40 40" fill="none" xmlns="http://www.w3.org/2000/svg">
<path d="M24.7 7.10107C24.369 7.69389 24.074 8.30611 23.8167 8.93441C21.2879 8.53449 18.712 8.53449 16.1833 8.93441C15.926 8.30611 15.631 7.69389 15.3 7.10107C12.918 7.50808 10.6023 8.23697 8.41665 9.26774C4.50822 14.9082 2.73571 21.756 3.41665 28.5844C5.96371 30.4992 8.82241 31.9595 11.8667 32.9011C12.5598 31.9854 13.1785 31.0156 13.7167 30.0011C12.7234 29.6349 11.7688 29.1715 10.8667 28.6177C11.1141 28.4531 11.3481 28.2692 11.5667 28.0677C14.1974 29.3349 17.0799 29.993 20 29.993C22.92 29.993 25.8026 29.3349 28.4333 28.0677C28.6667 28.2677 28.9 28.4511 29.1333 28.6177C28.2262 29.1671 27.2726 29.6356 26.2833 30.0177C26.7992 31.0553 27.4013 32.0477 28.0833 32.9844C31.1238 32.0461 33.9775 30.5854 36.5167 28.6677C37.2139 21.8381 35.44 14.9847 31.5167 9.35107C29.3555 8.29897 27.0628 7.54219 24.7 7.10107ZM14.4667 24.6844C13.6326 24.6245 12.8542 24.2439 12.2949 23.6224C11.7355 23.0008 11.4386 22.1868 11.4667 21.3511C11.4344 20.5143 11.7298 19.6979 12.29 19.0754C12.8502 18.453 13.6311 18.0735 14.4667 18.0177C15.3022 18.0735 16.0831 18.453 16.6433 19.0754C17.2035 19.6979 17.4989 20.5143 17.4667 21.3511C17.4989 22.1879 17.2035 23.0043 16.6433 23.6267C16.0831 24.2492 15.3022 24.6286 14.4667 24.6844ZM25.5333 24.6844C24.6993 24.6245 23.9209 24.2439 23.3615 23.6224C22.8021 23.0008 22.5053 22.1868 22.5333 21.3511C22.5011 20.5143 22.7965 19.6979 23.3567 19.0754C23.9169 18.453 24.6978 18.0735 25.5333 18.0177C26.3704 18.0694 27.1538 18.4476 27.7149 19.071C28.276 19.6944 28.5699 20.5132 28.5333 21.3511C28.5699 22.189 28.276 23.0078 27.7149 23.6312C27.1538 24.2546 26.3704 24.6328 25.5333 24.6844Z" fill="white"/>
</svg>
