<svg width="40" height="40" viewBox="0 0 40 40" fill="none" xmlns="http://www.w3.org/2000/svg">
<g clip-path="url(#clip0_851_49)">
<path d="M18.0033 29.6177C18.1572 29.6179 18.3095 29.6484 18.4516 29.7075C18.5936 29.7666 18.7227 29.8531 18.8313 29.962C18.94 30.071 19.0261 30.2003 19.0848 30.3425C19.1434 30.4847 19.1735 30.6371 19.1733 30.791C19.1731 30.9449 19.1426 31.0972 19.0835 31.2393C19.0244 31.3813 18.9379 31.5104 18.829 31.619C18.72 31.7277 18.5907 31.8138 18.4485 31.8725C18.3062 31.9311 18.1538 31.9612 18 31.961C17.6892 31.9606 17.3914 31.8367 17.172 31.6167C16.9525 31.3966 16.8295 31.0984 16.83 30.7877C16.8304 30.4769 16.9543 30.1791 17.1743 29.9597C17.3944 29.7402 17.6926 29.6172 18.0033 29.6177ZM36.3766 22.3727C36.2228 22.3726 36.0704 22.3421 35.9283 22.2832C35.7862 22.2242 35.6571 22.1378 35.5484 22.0289C35.4397 21.92 35.3535 21.7908 35.2947 21.6486C35.2359 21.5064 35.2057 21.354 35.2058 21.2002C35.2059 21.0463 35.2363 20.894 35.2953 20.7519C35.3543 20.6097 35.4407 20.4806 35.5496 20.3719C35.6584 20.2632 35.7877 20.177 35.9299 20.1182C36.0721 20.0594 36.2244 20.0292 36.3783 20.0293C36.689 20.0296 36.987 20.1532 37.2066 20.3731C37.4261 20.593 37.5494 20.8911 37.5491 21.2018C37.5489 21.5126 37.4253 21.8105 37.2054 22.0301C36.9855 22.2497 36.6874 22.3729 36.3766 22.3727V22.3727ZM36.3766 17.5793C35.4159 17.5802 34.4948 17.9622 33.8155 18.6416C33.1362 19.3209 32.7542 20.242 32.7533 21.2027C32.7533 21.591 32.8183 21.9777 32.945 22.3543L20.9766 28.726C20.6448 28.2441 20.2007 27.8502 19.6827 27.5782C19.1648 27.3061 18.5884 27.1641 18.0033 27.1643C16.6216 27.1643 15.3633 27.956 14.7533 29.191L4.00164 23.521C2.86497 22.9243 2.01497 21.0543 2.10497 19.351C2.15164 18.4627 2.4583 17.7727 2.92664 17.506C3.2233 17.3393 3.57997 17.3527 3.95997 17.551L4.02997 17.5893C6.87997 19.0893 16.2033 24.001 16.5966 24.1827C17.2016 24.4643 17.5383 24.5777 18.5716 24.0877L37.845 14.0643C38.1283 13.9577 38.4583 13.686 38.4583 13.2743C38.4583 12.7043 37.8683 12.4793 37.8666 12.4793C36.77 11.9543 35.085 11.166 33.4416 10.396C29.9283 8.751 25.9466 6.88767 24.1983 5.971C22.6883 5.181 21.4733 5.84767 21.2566 5.981L20.8366 6.18934C12.9666 10.081 2.4333 15.2977 1.8333 15.6627C0.761636 16.316 0.096636 17.6177 0.00996936 19.2327C-0.123364 21.7943 1.18164 24.466 3.04997 25.4443L14.42 31.3077C14.5452 32.169 14.9762 32.9564 15.6341 33.5262C16.292 34.096 17.133 34.4101 18.0033 34.411C18.9539 34.4094 19.8658 34.0348 20.5431 33.3678C21.2203 32.7009 21.6088 31.7948 21.625 30.8443L34.1483 24.056C34.7816 24.5527 35.57 24.8243 36.3766 24.8243C37.3373 24.8235 38.2584 24.4414 38.9377 23.7621C39.6171 23.0828 39.9991 22.1617 40 21.201C39.9991 20.2403 39.6171 19.3192 38.9377 18.6399C38.2584 17.9606 37.3373 17.5786 36.3766 17.5777" fill="white"/>
</g>
<defs>
<clipPath id="clip0_851_49">
<rect width="40" height="40" fill="white" transform="translate(0 0.000976562)"/>
</clipPath>
</defs>
</svg>
