<svg width="40" height="40" viewBox="0 0 40 40" fill="none" xmlns="http://www.w3.org/2000/svg">
<path d="M20 2.50098C15.2509 2.50098 14.6538 2.52285 12.7878 2.60598C10.9219 2.69348 9.65094 2.9866 8.5375 3.41973C7.36958 3.85902 6.3117 4.5481 5.43781 5.43879C4.54767 6.31312 3.85867 7.37088 3.41875 8.53848C2.98562 9.64973 2.69031 10.9229 2.605 12.7822C2.52188 14.6525 2.5 15.2475 2.5 20.0032C2.5 24.7544 2.52188 25.3494 2.605 27.2154C2.6925 29.0791 2.98562 30.35 3.41875 31.4635C3.86719 32.6141 4.46438 33.5897 5.43781 34.5632C6.40906 35.5366 7.38469 36.136 8.53531 36.5822C9.65094 37.0154 10.9197 37.3107 12.7834 37.396C14.6516 37.4791 15.2466 37.501 20 37.501C24.7534 37.501 25.3463 37.4791 27.2144 37.396C29.0759 37.3085 30.3512 37.0154 31.4647 36.5822C32.6319 36.1427 33.689 35.4536 34.5622 34.5632C35.5356 33.5897 36.1328 32.6141 36.5812 31.4635C37.0122 30.35 37.3075 29.0791 37.395 27.2154C37.4781 25.3494 37.5 24.7544 37.5 20.001C37.5 15.2475 37.4781 14.6525 37.395 12.7844C37.3075 10.9229 37.0122 9.64973 36.5812 8.53848C36.1414 7.37084 35.4524 6.31308 34.5622 5.43879C33.6886 4.54777 32.6306 3.85864 31.4625 3.41973C30.3469 2.9866 29.0737 2.69129 27.2122 2.60598C25.3441 2.52285 24.7513 2.50098 19.9956 2.50098H20.0022H20ZM18.4316 5.65535H20.0022C24.6747 5.65535 25.2281 5.67066 27.0722 5.75598C28.7784 5.83254 29.7059 6.1191 30.3228 6.35754C31.1388 6.67473 31.7228 7.05535 32.3353 7.66785C32.9478 8.28035 33.3263 8.86223 33.6434 9.68035C33.8841 10.295 34.1684 11.2225 34.245 12.9288C34.3303 14.7729 34.3478 15.3263 34.3478 19.9966C34.3478 24.6669 34.3303 25.2225 34.245 27.0666C34.1684 28.7729 33.8819 29.6982 33.6434 30.315C33.3629 31.0749 32.9151 31.7619 32.3331 32.3254C31.7206 32.9379 31.1388 33.3163 30.3206 33.6335C29.7081 33.8741 28.7806 34.1585 27.0722 34.2372C25.2281 34.3204 24.6747 34.34 20.0022 34.34C15.3297 34.34 14.7741 34.3204 12.93 34.2372C11.2238 34.1585 10.2984 33.8741 9.68156 33.6335C8.9214 33.3533 8.23371 32.9063 7.66906 32.3254C7.08664 31.761 6.63814 31.0734 6.35656 30.3129C6.11812 29.6982 5.83156 28.7707 5.755 27.0644C5.67188 25.2204 5.65438 24.6669 5.65438 19.9922C5.65438 15.3197 5.67188 14.7685 5.755 12.9244C5.83375 11.2182 6.11813 10.2907 6.35875 9.67379C6.67594 8.85785 7.05656 8.27379 7.66906 7.66129C8.28156 7.04879 8.86344 6.67035 9.68156 6.35316C10.2984 6.11254 11.2238 5.82816 12.93 5.74941C14.5444 5.67504 15.17 5.65316 18.4316 5.65098V5.65535ZM29.3428 8.56035C29.067 8.56035 28.794 8.61467 28.5392 8.7202C28.2844 8.82574 28.0529 8.98042 27.8579 9.17543C27.6629 9.37043 27.5082 9.60193 27.4027 9.85672C27.2971 10.1115 27.2428 10.3846 27.2428 10.6604C27.2428 10.9361 27.2971 11.2092 27.4027 11.464C27.5082 11.7188 27.6629 11.9503 27.8579 12.1453C28.0529 12.3403 28.2844 12.495 28.5392 12.6005C28.794 12.706 29.067 12.7604 29.3428 12.7604C29.8998 12.7604 30.4339 12.5391 30.8277 12.1453C31.2216 11.7514 31.4428 11.2173 31.4428 10.6604C31.4428 10.1034 31.2216 9.56925 30.8277 9.17543C30.4339 8.7816 29.8998 8.56035 29.3428 8.56035ZM20.0022 11.0147C18.8102 10.9961 17.6263 11.2149 16.5196 11.6582C15.4129 12.1015 14.4055 12.7605 13.556 13.5969C12.7064 14.4333 12.0317 15.4303 11.5712 16.53C11.1107 17.6296 10.8735 18.8099 10.8735 20.0021C10.8735 21.1942 11.1107 22.3745 11.5712 23.4742C12.0317 24.5738 12.7064 25.5708 13.556 26.4072C14.4055 27.2436 15.4129 27.9027 16.5196 28.346C17.6263 28.7893 18.8102 29.008 20.0022 28.9894C22.3615 28.9526 24.6117 27.9895 26.2671 26.3081C27.9226 24.6266 28.8504 22.3617 28.8504 20.0021C28.8504 17.6425 27.9226 15.3775 26.2671 13.6961C24.6117 12.0146 22.3615 11.0515 20.0022 11.0147ZM20.0022 14.1669C21.5495 14.1669 23.0334 14.7816 24.1275 15.8757C25.2216 16.9698 25.8363 18.4537 25.8363 20.001C25.8363 21.5483 25.2216 23.0322 24.1275 24.1263C23.0334 25.2204 21.5495 25.835 20.0022 25.835C18.4549 25.835 16.971 25.2204 15.8769 24.1263C14.7828 23.0322 14.1681 21.5483 14.1681 20.001C14.1681 18.4537 14.7828 16.9698 15.8769 15.8757C16.971 14.7816 18.4549 14.1669 20.0022 14.1669Z" fill="white"/>
</svg>
