<svg width="40" height="40" viewBox="0 0 40 40" fill="none" xmlns="http://www.w3.org/2000/svg">
<path d="M27.6667 9.70098C27.6667 9.70098 28.5167 10.5343 27.6667 9.70098C26.5274 8.40035 25.8995 6.73003 25.9 5.00098H20.75V25.6676C20.7103 26.786 20.2381 27.8453 19.433 28.6225C18.6278 29.3997 17.5524 29.8342 16.4333 29.8343C14.0667 29.8343 12.1 27.901 12.1 25.501C12.1 22.6343 14.8667 20.4843 17.7167 21.3676V16.101C11.9667 15.3343 6.93335 19.801 6.93335 25.501C6.93335 31.051 11.5333 35.001 16.4167 35.001C21.65 35.001 25.9 30.751 25.9 25.501V15.0176C27.9883 16.5174 30.4956 17.3221 33.0667 17.3176V12.1676C33.0667 12.1676 29.9333 12.3176 27.6667 9.70098Z" fill="white"/>
</svg>
