<svg width="40" height="40" viewBox="0 0 40 40" fill="none" xmlns="http://www.w3.org/2000/svg">
<path d="M39.405 8.22927C38.0133 8.84594 36.5183 9.26261 34.9466 9.45094C36.5683 8.4806 37.7816 6.95339 38.36 5.15428C36.8364 6.05926 35.1689 6.69627 33.43 7.03761C32.2606 5.78905 30.7117 4.96149 29.0239 4.6834C27.336 4.40531 25.6035 4.69226 24.0954 5.4997C22.5873 6.30713 21.3879 7.58988 20.6836 9.14878C19.9792 10.7077 19.8092 12.4555 20.2 14.1209C17.1128 13.9659 14.0927 13.1635 11.3357 11.7658C8.57868 10.368 6.14638 8.40621 4.19665 6.00761C3.52998 7.15761 3.14665 8.49094 3.14665 9.91094C3.1459 11.1893 3.4607 12.448 4.06311 13.5755C4.66552 14.703 5.53691 15.6643 6.59998 16.3743C5.36711 16.335 4.16143 16.0019 3.08331 15.4026V15.5026C3.08319 17.2955 3.70337 19.0332 4.83862 20.4209C5.97387 21.8086 7.55426 22.7608 9.31165 23.1159C8.16795 23.4255 6.96887 23.4711 5.80498 23.2493C6.30081 24.792 7.26664 26.141 8.56726 27.1075C9.86788 28.074 11.4382 28.6096 13.0583 28.6393C10.308 30.7983 6.91146 31.9694 3.41498 31.9643C2.79561 31.9644 2.17677 31.9283 1.56165 31.8559C5.11077 34.1379 9.24221 35.349 13.4616 35.3443C27.745 35.3443 35.5533 23.5143 35.5533 13.2543C35.5533 12.9209 35.545 12.5843 35.53 12.2509C37.0488 11.1526 38.3598 9.79243 39.4016 8.23428L39.405 8.22927Z" fill="white"/>
</svg>
